<svg width="169" height="65" viewBox="0 0 169 65" fill="none" xmlns="http://www.w3.org/2000/svg">
<path d="M40.1171 0C33.5169 0 27.1871 2.62178 22.5201 7.28858L7.28893 22.519C2.6219 27.1858 0 33.5153 0 40.1152C0 53.8588 11.1418 65 24.886 65C31.4862 65 37.816 62.3781 42.483 57.7113L53.0185 47.1764C53.0185 47.1761 53.0187 47.1766 53.0185 47.1764L83.7154 16.481C85.9443 14.2521 88.9674 13 92.1196 13C97.397 13 101.871 16.4394 103.422 21.1988L113.11 11.5114C108.691 4.58974 100.941 0 92.1196 0C85.5194 0 79.1896 2.62178 74.5226 7.28858L33.2903 48.519C31.0613 50.7479 28.0382 52 24.886 52C18.3219 52 13.0006 46.6791 13.0006 40.1152C13.0006 36.9631 14.2528 33.9402 16.4818 31.7113L31.7129 16.481C33.9418 14.2521 36.9649 13 40.1171 13C45.3947 13 49.8687 16.4395 51.4199 21.1991L61.1079 11.5117C56.6884 4.58987 48.9389 0 40.1171 0Z" fill="#3FF3FF"/>
<path d="M85.1818 48.519C82.9528 50.7479 79.9297 52 76.7775 52C71.5007 52 67.0269 48.5615 65.4753 43.8029L55.7876 53.49C60.2074 60.4108 67.9565 65 76.7775 65C83.3777 65 89.7076 62.3781 94.3746 57.7113L135.607 16.481C137.836 14.2521 140.859 13 144.012 13C150.576 13 155.897 18.321 155.897 24.8848C155.897 28.0369 154.645 31.0598 152.416 33.2887L137.185 48.519C134.956 50.7479 131.933 52 128.78 52C123.503 52 119.029 48.5609 117.478 43.8018L107.79 53.4892C112.21 60.4106 119.959 65 128.78 65C135.381 65 141.71 62.3781 146.378 57.7113L161.609 42.481C166.276 37.8142 168.898 31.4847 168.898 24.8848C168.898 11.1413 157.756 0 144.012 0C137.411 0 131.082 2.62178 126.414 7.28858L85.1818 48.519Z" fill="white"/>
</svg>
