<svg width="1758" height="1413" viewBox="0 0 1758 1413" fill="none" xmlns="http://www.w3.org/2000/svg">
<g filter="url(#filter0_f_153_55)">
<path d="M933.418 717.876C935.187 732.367 898.162 740.302 878.971 717.876C858.228 698.066 873.48 652.063 933.418 638.782C989.872 623.059 1079.2 653.241 1096.76 717.876C1119.13 780.025 1051.58 863.868 933.418 876.074C818.928 892.872 677.054 824.845 661.184 717.876C637.128 613.517 757.221 491.585 933.418 480.584C1106.2 462.581 1300.17 568.671 1314.55 717.876C1340.13 864.47 1167.9 1024.48 933.418 1034.27C702.394 1053.47 456.154 909.295 443.398 717.876C416.226 528.947 640.687 331.078 933.418 322.39C1222.46 302.101 1521.28 484.122 1532.33 717.876C1561.17 949.018 1284.27 1184.98 933.418 1192.46C586.098 1213.96 235.152 993.865 225.61 717.876C195.293 444.502 524.294 170.497 933.418 164.195C1338.89 141.495 1742.24 399.679 1750.12 717.876C1782.13 1033.59 1400.66 1345.46 933.418 1350.66C469.843 1374.46 14.0449 1078.41 7.82274 717.876C-25.7095 359.955 407.964 9.9924 933.418 6" stroke="white" stroke-width="3" stroke-linecap="round"/>
</g>
<g filter="url(#filter1_f_153_55)">
<path d="M933.418 772.876C935.187 787.367 898.162 795.302 878.971 772.876C858.228 753.066 873.48 707.063 933.418 693.782C989.872 678.059 1079.2 708.241 1096.76 772.876C1119.13 835.025 1051.58 918.868 933.418 931.074C818.928 947.872 677.054 879.845 661.184 772.876C637.128 668.517 757.221 546.585 933.418 535.584C1106.2 517.581 1300.17 623.671 1314.55 772.876C1340.13 919.47 1167.9 1079.48 933.418 1089.27C702.394 1108.47 456.154 964.295 443.398 772.876C416.226 583.947 640.687 386.078 933.418 377.39C1222.46 357.101 1521.28 539.122 1532.33 772.876C1561.17 1004.02 1284.27 1239.98 933.418 1247.46C586.098 1268.96 235.152 1048.87 225.61 772.876C195.293 499.502 524.294 225.497 933.418 219.195C1338.89 196.495 1742.24 454.679 1750.12 772.876C1782.13 1088.59 1400.66 1400.46 933.418 1405.66C469.843 1429.46 14.0449 1133.41 7.82274 772.876C-25.7095 414.955 407.964 64.9924 933.418 61" stroke="#3FF3FF" stroke-width="3" stroke-linecap="round"/>
</g>
<defs>
<filter id="filter0_f_153_55" x="0.5" y="0.5" width="1757" height="1357" filterUnits="userSpaceOnUse" color-interpolation-filters="sRGB">
<feFlood flood-opacity="0" result="BackgroundImageFix"/>
<feBlend mode="normal" in="SourceGraphic" in2="BackgroundImageFix" result="shape"/>
<feGaussianBlur stdDeviation="2" result="effect1_foregroundBlur_153_55"/>
</filter>
<filter id="filter1_f_153_55" x="0.5" y="55.5" width="1757" height="1357" filterUnits="userSpaceOnUse" color-interpolation-filters="sRGB">
<feFlood flood-opacity="0" result="BackgroundImageFix"/>
<feBlend mode="normal" in="SourceGraphic" in2="BackgroundImageFix" result="shape"/>
<feGaussianBlur stdDeviation="2" result="effect1_foregroundBlur_153_55"/>
</filter>
</defs>
</svg>
