<svg width="1438" height="102" viewBox="0 0 1438 102" fill="none" xmlns="http://www.w3.org/2000/svg">
<path d="M0 0H1447V102H0V0Z" fill="white"/>
<path d="M136.874 66V48.5455H148.056V51.196H140.036V55.9347H147.289V58.5852H140.036V66H136.874ZM153.97 66.2642C153.141 66.2642 152.394 66.1165 151.729 65.821C151.07 65.5199 150.547 65.0767 150.161 64.4915C149.78 63.9062 149.59 63.1847 149.59 62.3267C149.59 61.5881 149.726 60.9773 149.999 60.4943C150.271 60.0114 150.644 59.625 151.115 59.3352C151.587 59.0455 152.118 58.8267 152.709 58.679C153.305 58.5256 153.922 58.4148 154.558 58.3466C155.325 58.267 155.948 58.196 156.425 58.1335C156.902 58.0653 157.249 57.9631 157.465 57.8267C157.686 57.6847 157.797 57.4659 157.797 57.1705V57.1193C157.797 56.4773 157.607 55.9801 157.226 55.6278C156.845 55.2756 156.297 55.0994 155.581 55.0994C154.825 55.0994 154.226 55.2642 153.783 55.5938C153.345 55.9233 153.05 56.3125 152.896 56.7614L150.016 56.3523C150.243 55.5568 150.618 54.892 151.141 54.358C151.663 53.8182 152.303 53.4148 153.058 53.1477C153.814 52.875 154.649 52.7386 155.564 52.7386C156.195 52.7386 156.823 52.8125 157.448 52.9602C158.073 53.108 158.644 53.3523 159.161 53.6932C159.678 54.0284 160.092 54.4858 160.405 55.0653C160.723 55.6449 160.882 56.3693 160.882 57.2386V66H157.916V64.2017H157.814C157.626 64.5653 157.362 64.9062 157.021 65.2244C156.686 65.5369 156.263 65.7898 155.751 65.983C155.246 66.1705 154.652 66.2642 153.97 66.2642ZM154.771 63.9972C155.391 63.9972 155.928 63.875 156.382 63.6307C156.837 63.3807 157.186 63.0511 157.43 62.642C157.68 62.233 157.805 61.7869 157.805 61.304V59.7614C157.709 59.8409 157.544 59.9148 157.311 59.983C157.084 60.0511 156.828 60.1108 156.544 60.1619C156.26 60.2131 155.979 60.2585 155.7 60.2983C155.422 60.3381 155.18 60.3722 154.976 60.4006C154.516 60.4631 154.104 60.5653 153.74 60.7074C153.376 60.8494 153.09 61.0483 152.879 61.304C152.669 61.554 152.564 61.8778 152.564 62.2756C152.564 62.8438 152.771 63.2727 153.186 63.5625C153.601 63.8523 154.129 63.9972 154.771 63.9972ZM169.215 66.2557C167.908 66.2557 166.786 65.9688 165.848 65.3949C164.916 64.821 164.198 64.0284 163.692 63.017C163.192 62 162.942 60.8295 162.942 59.5057C162.942 58.1761 163.198 57.0028 163.709 55.9858C164.22 54.9631 164.942 54.1676 165.874 53.5994C166.811 53.0256 167.919 52.7386 169.198 52.7386C170.26 52.7386 171.2 52.9347 172.019 53.3267C172.843 53.7131 173.499 54.2614 173.987 54.9716C174.476 55.6761 174.754 56.5 174.823 57.4432H171.874C171.754 56.8125 171.47 56.2869 171.021 55.8665C170.578 55.4403 169.985 55.2273 169.24 55.2273C168.61 55.2273 168.056 55.3977 167.578 55.7386C167.101 56.0739 166.729 56.5568 166.462 57.1875C166.2 57.8182 166.07 58.5739 166.07 59.4545C166.07 60.3466 166.2 61.1136 166.462 61.7557C166.723 62.392 167.09 62.8835 167.561 63.2301C168.039 63.571 168.598 63.7415 169.24 63.7415C169.695 63.7415 170.101 63.6562 170.459 63.4858C170.823 63.3097 171.127 63.0568 171.371 62.7273C171.615 62.3977 171.783 61.9972 171.874 61.5256H174.823C174.749 62.4517 174.476 63.2727 174.004 63.9886C173.533 64.6989 172.891 65.2557 172.078 65.6591C171.266 66.0568 170.311 66.2557 169.215 66.2557ZM182.671 66.2557C181.359 66.2557 180.225 65.983 179.271 65.4375C178.322 64.8864 177.592 64.108 177.081 63.1023C176.569 62.0909 176.314 60.9006 176.314 59.5312C176.314 58.1847 176.569 57.0028 177.081 55.9858C177.598 54.9631 178.319 54.1676 179.245 53.5994C180.171 53.0256 181.26 52.7386 182.51 52.7386C183.316 52.7386 184.078 52.8693 184.794 53.1307C185.515 53.3864 186.152 53.7841 186.703 54.3239C187.26 54.8636 187.697 55.5511 188.015 56.3864C188.333 57.2159 188.492 58.2045 188.492 59.3523V60.2983H177.762V58.2188H185.535C185.529 57.6278 185.402 57.1023 185.152 56.642C184.902 56.1761 184.552 55.8097 184.103 55.5426C183.66 55.2756 183.143 55.142 182.552 55.142C181.921 55.142 181.367 55.2955 180.89 55.6023C180.413 55.9034 180.041 56.3011 179.774 56.7955C179.512 57.2841 179.379 57.821 179.373 58.4062V60.2216C179.373 60.983 179.512 61.6364 179.791 62.1818C180.069 62.7216 180.458 63.1364 180.958 63.4261C181.458 63.7102 182.044 63.8523 182.714 63.8523C183.163 63.8523 183.569 63.7898 183.933 63.6648C184.296 63.5341 184.612 63.3438 184.879 63.0938C185.146 62.8438 185.348 62.5341 185.484 62.1648L188.365 62.4886C188.183 63.25 187.836 63.9148 187.325 64.483C186.819 65.0455 186.171 65.483 185.382 65.7955C184.592 66.1023 183.689 66.2557 182.671 66.2557ZM196.232 66V48.5455H207.584V51.196H199.394V55.9347H206.996V58.5852H199.394V63.3494H207.653V66H196.232ZM215.052 66.2301C214.023 66.2301 213.103 65.9659 212.29 65.4375C211.478 64.9091 210.836 64.142 210.364 63.1364C209.893 62.1307 209.657 60.9091 209.657 59.4716C209.657 58.017 209.896 56.7898 210.373 55.7898C210.856 54.7841 211.506 54.0256 212.325 53.5142C213.143 52.9972 214.055 52.7386 215.06 52.7386C215.827 52.7386 216.458 52.8693 216.952 53.1307C217.447 53.3864 217.839 53.696 218.128 54.0597C218.418 54.4176 218.643 54.7557 218.802 55.0739H218.93V48.5455H222.023V66H218.989V63.9375H218.802C218.643 64.2557 218.413 64.5937 218.111 64.9517C217.81 65.304 217.413 65.6051 216.918 65.8551C216.424 66.1051 215.802 66.2301 215.052 66.2301ZM215.913 63.6989C216.566 63.6989 217.123 63.5227 217.583 63.1705C218.043 62.8125 218.393 62.3153 218.631 61.679C218.87 61.0426 218.989 60.3011 218.989 59.4545C218.989 58.608 218.87 57.8722 218.631 57.2472C218.398 56.6222 218.052 56.1364 217.592 55.7898C217.137 55.4432 216.577 55.2699 215.913 55.2699C215.225 55.2699 214.651 55.4489 214.191 55.8068C213.731 56.1648 213.384 56.6591 213.151 57.2898C212.918 57.9205 212.802 58.642 212.802 59.4545C212.802 60.2727 212.918 61.0028 213.151 61.6449C213.39 62.2812 213.739 62.7841 214.2 63.1534C214.665 63.517 215.236 63.6989 215.913 63.6989ZM233.175 60.4943V52.9091H236.26V66H233.269V63.6733H233.132C232.837 64.4062 232.351 65.0057 231.675 65.4716C231.004 65.9375 230.178 66.1705 229.195 66.1705C228.337 66.1705 227.578 65.9801 226.919 65.5994C226.266 65.2131 225.754 64.6534 225.385 63.9205C225.016 63.1818 224.831 62.2898 224.831 61.2443V52.9091H227.916V60.767C227.916 61.5966 228.144 62.2557 228.598 62.7443C229.053 63.233 229.649 63.4773 230.388 63.4773C230.842 63.4773 231.283 63.3665 231.709 63.1449C232.135 62.9233 232.484 62.5938 232.757 62.1562C233.036 61.7131 233.175 61.1591 233.175 60.4943Z" fill="black"/>
<path d="M53.6645 76.3242C50.2647 76.3242 47.0042 74.8591 44.6002 72.2511L36.7546 63.7398C34.3506 61.1319 33 57.5947 33 53.9065C33 46.2261 38.7392 40 45.8189 40C49.2187 40 52.4792 41.4652 54.8832 44.0732L60.3101 49.9605C60.3101 49.9606 60.3102 49.9603 60.3101 49.9605L76.1222 67.1141C77.2703 68.3596 78.8275 69.0594 80.4512 69.0594C83.1696 69.0594 85.4743 67.1373 86.2733 64.4776L91.2636 69.8912C88.987 73.7593 84.9953 76.3242 80.4512 76.3242C77.0514 76.3242 73.7909 74.8591 71.3869 72.2511L50.148 49.2101C48.9998 47.9646 47.4426 47.2648 45.8189 47.2648C42.4377 47.2648 39.6967 50.2383 39.6967 53.9065C39.6967 55.668 40.3417 57.3573 41.4898 58.6028L49.3354 67.1141C50.4836 68.3596 52.0408 69.0594 53.6645 69.0594C56.383 69.0594 58.6876 67.1372 59.4866 64.4774L64.477 69.8911C62.2004 73.7592 58.2086 76.3242 53.6645 76.3242Z" fill="#3FF3FF"/>
<path d="M76.8774 49.2101C75.7293 47.9646 74.172 47.2648 72.5483 47.2648C69.8302 47.2648 67.5258 49.1864 66.7265 51.8457L61.7363 46.4322C64.013 42.5646 68.0046 40 72.5483 40C75.9481 40 79.2087 41.4652 81.6127 44.0732L102.852 67.1141C104 68.3596 105.557 69.0594 107.181 69.0594C110.562 69.0594 113.303 66.0858 113.303 62.4177C113.303 60.6563 112.658 58.9669 111.51 57.7214L103.664 49.2101C102.516 47.9646 100.959 47.2648 99.3352 47.2648C96.6169 47.2648 94.3124 49.1868 93.5132 51.8463L88.523 46.4327C90.7996 42.5647 94.7913 40 99.3352 40C102.735 40 105.996 41.4652 108.4 44.0732L116.245 52.5844C118.649 55.1924 120 58.7295 120 62.4177C120 70.0981 114.261 76.3242 107.181 76.3242C103.781 76.3242 100.521 74.8591 98.1165 72.2511L76.8774 49.2101Z" fill="black"/>
<path d="M402.719 66V45.6364H408.247V53.5909H415.565V45.6364H421.094V66H415.565V58.0455H408.247V66H402.719ZM430.596 66.2784C428.939 66.2784 427.521 65.9503 426.341 65.294C425.161 64.6312 424.256 63.7098 423.626 62.5298C422.997 61.3433 422.682 59.9678 422.682 58.4034C422.682 56.839 422.997 55.4669 423.626 54.2869C424.256 53.1004 425.161 52.179 426.341 51.5227C427.521 50.8598 428.939 50.5284 430.596 50.5284C432.254 50.5284 433.672 50.8598 434.852 51.5227C436.032 52.179 436.937 53.1004 437.567 54.2869C438.196 55.4669 438.511 56.839 438.511 58.4034C438.511 59.9678 438.196 61.3433 437.567 62.5298C436.937 63.7098 436.032 64.6312 434.852 65.294C433.672 65.9503 432.254 66.2784 430.596 66.2784ZM430.636 62.2216C431.1 62.2216 431.501 62.0658 431.839 61.7543C432.177 61.4427 432.439 60.9986 432.625 60.4219C432.81 59.8452 432.903 59.1591 432.903 58.3636C432.903 57.5616 432.81 56.8755 432.625 56.3054C432.439 55.7287 432.177 55.2846 431.839 54.973C431.501 54.6615 431.1 54.5057 430.636 54.5057C430.146 54.5057 429.725 54.6615 429.373 54.973C429.022 55.2846 428.754 55.7287 428.568 56.3054C428.382 56.8755 428.29 57.5616 428.29 58.3636C428.29 59.1591 428.382 59.8452 428.568 60.4219C428.754 60.9986 429.022 61.4427 429.373 61.7543C429.725 62.0658 430.146 62.2216 430.636 62.2216ZM440.178 66V50.7273H445.389V53.6307H445.548C445.866 52.6761 446.41 51.9205 447.178 51.3636C447.947 50.8068 448.862 50.5284 449.923 50.5284C450.997 50.5284 451.921 50.8134 452.697 51.3835C453.472 51.947 453.94 52.696 454.099 53.6307H454.258C454.517 52.696 455.067 51.947 455.909 51.3835C456.75 50.8134 457.738 50.5284 458.872 50.5284C460.337 50.5284 461.523 50.9991 462.431 51.9403C463.346 52.8816 463.803 54.1345 463.803 55.6989V66H458.315V57.0909C458.315 56.4214 458.146 55.8977 457.808 55.5199C457.47 55.1354 457.016 54.9432 456.445 54.9432C455.882 54.9432 455.435 55.1354 455.103 55.5199C454.778 55.8977 454.616 56.4214 454.616 57.0909V66H449.366V57.0909C449.366 56.4214 449.197 55.8977 448.859 55.5199C448.521 55.1354 448.067 54.9432 447.497 54.9432C447.119 54.9432 446.794 55.0294 446.522 55.2017C446.25 55.3741 446.038 55.6226 445.886 55.9474C445.74 56.2656 445.667 56.6468 445.667 57.0909V66H440.178ZM473.269 66.2784C471.638 66.2784 470.233 65.9669 469.053 65.3438C467.879 64.714 466.975 63.8125 466.338 62.6392C465.709 61.4593 465.394 60.0473 465.394 58.4034C465.394 56.8258 465.712 55.447 466.348 54.267C466.985 53.0871 467.883 52.169 469.043 51.5128C470.203 50.8565 471.572 50.5284 473.149 50.5284C474.303 50.5284 475.347 50.7074 476.281 51.0653C477.216 51.4233 478.015 51.9437 478.678 52.6264C479.341 53.3026 479.851 54.1245 480.209 55.0923C480.567 56.0601 480.746 57.1506 480.746 58.3636V59.6364H467.104V56.6136H475.695C475.688 56.1761 475.575 55.7917 475.357 55.4602C475.145 55.1222 474.856 54.8603 474.492 54.6747C474.134 54.4825 473.726 54.3864 473.269 54.3864C472.825 54.3864 472.417 54.4825 472.046 54.6747C471.674 54.8603 471.376 55.1188 471.151 55.4503C470.932 55.7817 470.816 56.1695 470.803 56.6136V59.875C470.803 60.3655 470.906 60.803 471.111 61.1875C471.316 61.572 471.611 61.8736 471.996 62.0923C472.38 62.3111 472.844 62.4205 473.388 62.4205C473.766 62.4205 474.111 62.3674 474.422 62.2614C474.74 62.1553 475.012 62.0028 475.237 61.804C475.463 61.5985 475.629 61.3532 475.735 61.0682H480.746C480.574 62.1288 480.166 63.0502 479.523 63.8324C478.88 64.608 478.028 65.2112 476.968 65.642C475.914 66.0663 474.681 66.2784 473.269 66.2784Z" fill="black"/>
<path d="M631.447 48.5455L635.989 62.2841H636.168L640.702 48.5455H644.18L638.026 66H634.123L627.978 48.5455H631.447ZM650.252 66.2557C648.939 66.2557 647.806 65.983 646.851 65.4375C645.902 64.8864 645.172 64.108 644.661 63.1023C644.149 62.0909 643.894 60.9006 643.894 59.5312C643.894 58.1847 644.149 57.0028 644.661 55.9858C645.178 54.9631 645.899 54.1676 646.825 53.5994C647.752 53.0256 648.84 52.7386 650.09 52.7386C650.897 52.7386 651.658 52.8693 652.374 53.1307C653.095 53.3864 653.732 53.7841 654.283 54.3239C654.84 54.8636 655.277 55.5511 655.595 56.3864C655.914 57.2159 656.073 58.2045 656.073 59.3523V60.2983H645.343V58.2188H653.115C653.11 57.6278 652.982 57.1023 652.732 56.642C652.482 56.1761 652.132 55.8097 651.683 55.5426C651.24 55.2756 650.723 55.142 650.132 55.142C649.502 55.142 648.948 55.2955 648.47 55.6023C647.993 55.9034 647.621 56.3011 647.354 56.7955C647.093 57.2841 646.959 57.821 646.953 58.4062V60.2216C646.953 60.983 647.093 61.6364 647.371 62.1818C647.649 62.7216 648.039 63.1364 648.539 63.4261C649.039 63.7102 649.624 63.8523 650.294 63.8523C650.743 63.8523 651.149 63.7898 651.513 63.6648C651.877 63.5341 652.192 63.3438 652.459 63.0938C652.726 62.8438 652.928 62.5341 653.064 62.1648L655.945 62.4886C655.763 63.25 655.416 63.9148 654.905 64.483C654.399 65.0455 653.752 65.483 652.962 65.7955C652.172 66.1023 651.269 66.2557 650.252 66.2557ZM658.203 66V52.9091H661.194V55.0909H661.331C661.569 54.3352 661.978 53.7528 662.558 53.3438C663.143 52.929 663.811 52.7216 664.561 52.7216C664.731 52.7216 664.921 52.7301 665.132 52.7472C665.348 52.7585 665.527 52.7784 665.669 52.8068V55.6449C665.538 55.5994 665.331 55.5597 665.046 55.5256C664.768 55.4858 664.498 55.4659 664.237 55.4659C663.674 55.4659 663.169 55.5881 662.72 55.8324C662.277 56.071 661.927 56.4034 661.671 56.8295C661.416 57.2557 661.288 57.7472 661.288 58.304V66H658.203ZM667.238 66V52.9091H670.324V66H667.238ZM668.789 51.0511C668.301 51.0511 667.88 50.8892 667.528 50.5653C667.176 50.2358 667 49.8409 667 49.3807C667 48.9148 667.176 48.5199 667.528 48.196C667.88 47.8665 668.301 47.7017 668.789 47.7017C669.284 47.7017 669.704 47.8665 670.051 48.196C670.403 48.5199 670.579 48.9148 670.579 49.3807C670.579 49.8409 670.403 50.2358 670.051 50.5653C669.704 50.8892 669.284 51.0511 668.789 51.0511ZM679.647 52.9091V55.2955H671.908V52.9091H679.647ZM673.843 66V51.6733C673.843 50.7926 674.025 50.0597 674.388 49.4744C674.758 48.8892 675.252 48.4517 675.871 48.1619C676.491 47.8722 677.178 47.7273 677.934 47.7273C678.468 47.7273 678.942 47.7699 679.357 47.8551C679.772 47.9403 680.079 48.017 680.278 48.0852L679.664 50.4716C679.533 50.4318 679.368 50.392 679.17 50.3523C678.971 50.3068 678.749 50.2841 678.505 50.2841C677.931 50.2841 677.525 50.4233 677.286 50.7017C677.053 50.9744 676.937 51.3665 676.937 51.8778V66H673.843ZM681.583 66V52.9091H684.668V66H681.583ZM683.134 51.0511C682.646 51.0511 682.225 50.8892 681.873 50.5653C681.521 50.2358 681.344 49.8409 681.344 49.3807C681.344 48.9148 681.521 48.5199 681.873 48.196C682.225 47.8665 682.646 47.7017 683.134 47.7017C683.628 47.7017 684.049 47.8665 684.396 48.196C684.748 48.5199 684.924 48.9148 684.924 49.3807C684.924 49.8409 684.748 50.2358 684.396 50.5653C684.049 50.8892 683.628 51.0511 683.134 51.0511ZM693.071 66.2557C691.764 66.2557 690.642 65.9688 689.705 65.3949C688.773 64.821 688.054 64.0284 687.548 63.017C687.048 62 686.798 60.8295 686.798 59.5057C686.798 58.1761 687.054 57.0028 687.565 55.9858C688.077 54.9631 688.798 54.1676 689.73 53.5994C690.668 53.0256 691.776 52.7386 693.054 52.7386C694.117 52.7386 695.057 52.9347 695.875 53.3267C696.699 53.7131 697.355 54.2614 697.844 54.9716C698.332 55.6761 698.611 56.5 698.679 57.4432H695.73C695.611 56.8125 695.327 56.2869 694.878 55.8665C694.435 55.4403 693.841 55.2273 693.097 55.2273C692.466 55.2273 691.912 55.3977 691.435 55.7386C690.957 56.0739 690.585 56.5568 690.318 57.1875C690.057 57.8182 689.926 58.5739 689.926 59.4545C689.926 60.3466 690.057 61.1136 690.318 61.7557C690.58 62.392 690.946 62.8835 691.418 63.2301C691.895 63.571 692.455 63.7415 693.097 63.7415C693.551 63.7415 693.957 63.6562 694.315 63.4858C694.679 63.3097 694.983 63.0568 695.227 62.7273C695.472 62.3977 695.639 61.9972 695.73 61.5256H698.679C698.605 62.4517 698.332 63.2727 697.861 63.9886C697.389 64.6989 696.747 65.2557 695.935 65.6591C695.122 66.0568 694.168 66.2557 693.071 66.2557ZM704.499 66.2642C703.67 66.2642 702.923 66.1165 702.258 65.821C701.599 65.5199 701.076 65.0767 700.69 64.4915C700.309 63.9062 700.119 63.1847 700.119 62.3267C700.119 61.5881 700.255 60.9773 700.528 60.4943C700.801 60.0114 701.173 59.625 701.644 59.3352C702.116 59.0455 702.647 58.8267 703.238 58.679C703.835 58.5256 704.451 58.4148 705.088 58.3466C705.855 58.267 706.477 58.196 706.954 58.1335C707.431 58.0653 707.778 57.9631 707.994 57.8267C708.215 57.6847 708.326 57.4659 708.326 57.1705V57.1193C708.326 56.4773 708.136 55.9801 707.755 55.6278C707.374 55.2756 706.826 55.0994 706.11 55.0994C705.355 55.0994 704.755 55.2642 704.312 55.5938C703.874 55.9233 703.579 56.3125 703.426 56.7614L700.545 56.3523C700.772 55.5568 701.147 54.892 701.67 54.358C702.193 53.8182 702.832 53.4148 703.588 53.1477C704.343 52.875 705.178 52.7386 706.093 52.7386C706.724 52.7386 707.352 52.8125 707.977 52.9602C708.602 53.108 709.173 53.3523 709.69 53.6932C710.207 54.0284 710.622 54.4858 710.934 55.0653C711.252 55.6449 711.411 56.3693 711.411 57.2386V66H708.445V64.2017H708.343C708.156 64.5653 707.892 64.9062 707.551 65.2244C707.215 65.5369 706.792 65.7898 706.281 65.983C705.775 66.1705 705.181 66.2642 704.499 66.2642ZM705.301 63.9972C705.92 63.9972 706.457 63.875 706.911 63.6307C707.366 63.3807 707.715 63.0511 707.96 62.642C708.21 62.233 708.335 61.7869 708.335 61.304V59.7614C708.238 59.8409 708.073 59.9148 707.84 59.983C707.613 60.0511 707.357 60.1108 707.073 60.1619C706.789 60.2131 706.508 60.2585 706.23 60.2983C705.951 60.3381 705.71 60.3722 705.505 60.4006C705.045 60.4631 704.633 60.5653 704.269 60.7074C703.906 60.8494 703.619 61.0483 703.409 61.304C703.198 61.554 703.093 61.8778 703.093 62.2756C703.093 62.8438 703.301 63.2727 703.715 63.5625C704.13 63.8523 704.659 63.9972 705.301 63.9972ZM720.571 52.9091V55.2955H713.045V52.9091H720.571ZM714.903 49.7727H717.988V62.0625C717.988 62.4773 718.051 62.7955 718.176 63.017C718.306 63.233 718.477 63.3807 718.687 63.4602C718.897 63.5398 719.13 63.5795 719.386 63.5795C719.579 63.5795 719.755 63.5653 719.914 63.5369C720.079 63.5085 720.204 63.483 720.289 63.4602L720.809 65.8722C720.644 65.929 720.409 65.9915 720.102 66.0597C719.801 66.1278 719.431 66.1676 718.994 66.179C718.221 66.2017 717.525 66.0852 716.906 65.8295C716.287 65.5682 715.795 65.1648 715.431 64.6193C715.073 64.0739 714.897 63.392 714.903 62.5739V49.7727ZM722.671 66V52.9091H725.756V66H722.671ZM724.222 51.0511C723.733 51.0511 723.313 50.8892 722.961 50.5653C722.608 50.2358 722.432 49.8409 722.432 49.3807C722.432 48.9148 722.608 48.5199 722.961 48.196C723.313 47.8665 723.733 47.7017 724.222 47.7017C724.716 47.7017 725.137 47.8665 725.483 48.196C725.836 48.5199 726.012 48.9148 726.012 49.3807C726.012 49.8409 725.836 50.2358 725.483 50.5653C725.137 50.8892 724.716 51.0511 724.222 51.0511ZM734.159 66.2557C732.88 66.2557 731.773 65.9744 730.835 65.4119C729.898 64.8494 729.17 64.0625 728.653 63.0511C728.142 62.0398 727.886 60.858 727.886 59.5057C727.886 58.1534 728.142 56.9687 728.653 55.9517C729.17 54.9347 729.898 54.1449 730.835 53.5824C731.773 53.0199 732.88 52.7386 734.159 52.7386C735.437 52.7386 736.545 53.0199 737.483 53.5824C738.42 54.1449 739.145 54.9347 739.656 55.9517C740.173 56.9687 740.432 58.1534 740.432 59.5057C740.432 60.858 740.173 62.0398 739.656 63.0511C739.145 64.0625 738.42 64.8494 737.483 65.4119C736.545 65.9744 735.437 66.2557 734.159 66.2557ZM734.176 63.7841C734.869 63.7841 735.449 63.5937 735.915 63.2131C736.38 62.8267 736.727 62.3097 736.954 61.6619C737.187 61.0142 737.304 60.2926 737.304 59.4972C737.304 58.696 737.187 57.9716 736.954 57.3239C736.727 56.6705 736.38 56.1506 735.915 55.7642C735.449 55.3778 734.869 55.1847 734.176 55.1847C733.466 55.1847 732.875 55.3778 732.403 55.7642C731.937 56.1506 731.588 56.6705 731.355 57.3239C731.128 57.9716 731.014 58.696 731.014 59.4972C731.014 60.2926 731.128 61.0142 731.355 61.6619C731.588 62.3097 731.937 62.8267 732.403 63.2131C732.875 63.5937 733.466 63.7841 734.176 63.7841ZM745.655 58.3295V66H742.57V52.9091H745.519V55.1335H745.673C745.974 54.4006 746.454 53.8182 747.113 53.3864C747.778 52.9545 748.599 52.7386 749.576 52.7386C750.479 52.7386 751.266 52.9318 751.937 53.3182C752.613 53.7045 753.136 54.2642 753.505 54.9972C753.88 55.7301 754.065 56.6193 754.059 57.6648V66H750.974V58.142C750.974 57.267 750.746 56.5824 750.292 56.0881C749.843 55.5937 749.221 55.3466 748.425 55.3466C747.886 55.3466 747.405 55.4659 746.985 55.7045C746.57 55.9375 746.244 56.2756 746.005 56.7188C745.772 57.1619 745.655 57.6989 745.655 58.3295Z" fill="black"/>
<path d="M881.023 66V48.5455H887.569C888.91 48.5455 890.035 48.7784 890.944 49.2443C891.858 49.7102 892.549 50.3636 893.015 51.2045C893.486 52.0398 893.722 53.0142 893.722 54.1278C893.722 55.2472 893.483 56.2187 893.006 57.0426C892.535 57.8608 891.838 58.4943 890.918 58.9432C889.998 59.3864 888.867 59.608 887.526 59.608H882.864V56.983H887.1C887.884 56.983 888.526 56.875 889.026 56.6591C889.526 56.4375 889.895 56.1165 890.134 55.696C890.378 55.2699 890.5 54.7472 890.5 54.1278C890.5 53.5085 890.378 52.9801 890.134 52.5426C889.89 52.0994 889.517 51.7642 889.017 51.5369C888.517 51.304 887.873 51.1875 887.083 51.1875H884.185V66H881.023ZM890.04 58.0909L894.361 66H890.833L886.588 58.0909H890.04ZM901.624 66.2557C900.312 66.2557 899.178 65.983 898.224 65.4375C897.275 64.8864 896.545 64.108 896.033 63.1023C895.522 62.0909 895.266 60.9006 895.266 59.5312C895.266 58.1847 895.522 57.0028 896.033 55.9858C896.55 54.9631 897.272 54.1676 898.198 53.5994C899.124 53.0256 900.212 52.7386 901.462 52.7386C902.269 52.7386 903.03 52.8693 903.746 53.1307C904.468 53.3864 905.104 53.7841 905.655 54.3239C906.212 54.8636 906.65 55.5511 906.968 56.3864C907.286 57.2159 907.445 58.2045 907.445 59.3523V60.2983H896.715V58.2188H904.488C904.482 57.6278 904.354 57.1023 904.104 56.642C903.854 56.1761 903.505 55.8097 903.056 55.5426C902.613 55.2756 902.096 55.142 901.505 55.142C900.874 55.142 900.32 55.2955 899.843 55.6023C899.366 55.9034 898.993 56.3011 898.726 56.7955C898.465 57.2841 898.332 57.821 898.326 58.4062V60.2216C898.326 60.983 898.465 61.6364 898.743 62.1818C899.022 62.7216 899.411 63.1364 899.911 63.4261C900.411 63.7102 900.996 63.8523 901.667 63.8523C902.116 63.8523 902.522 63.7898 902.885 63.6648C903.249 63.5341 903.564 63.3438 903.832 63.0938C904.099 62.8438 904.3 62.5341 904.437 62.1648L907.317 62.4886C907.135 63.25 906.789 63.9148 906.278 64.483C905.772 65.0455 905.124 65.483 904.334 65.7955C903.545 66.1023 902.641 66.2557 901.624 66.2557ZM919.922 56.3693L917.109 56.6761C917.03 56.392 916.891 56.125 916.692 55.875C916.499 55.625 916.237 55.4233 915.908 55.2699C915.578 55.1165 915.175 55.0398 914.697 55.0398C914.055 55.0398 913.516 55.179 913.078 55.4574C912.646 55.7358 912.433 56.0966 912.439 56.5398C912.433 56.9205 912.572 57.2301 912.856 57.4688C913.146 57.7074 913.624 57.9034 914.288 58.0568L916.521 58.5341C917.76 58.8011 918.68 59.2244 919.283 59.804C919.891 60.3835 920.197 61.142 920.203 62.0795C920.197 62.9034 919.956 63.6307 919.479 64.2614C919.007 64.8864 918.351 65.375 917.51 65.7273C916.669 66.0795 915.703 66.2557 914.612 66.2557C913.01 66.2557 911.72 65.9205 910.743 65.25C909.766 64.5739 909.183 63.6335 908.996 62.429L912.004 62.1392C912.141 62.7301 912.43 63.1761 912.874 63.4773C913.317 63.7784 913.893 63.929 914.604 63.929C915.337 63.929 915.925 63.7784 916.368 63.4773C916.817 63.1761 917.041 62.804 917.041 62.3608C917.041 61.9858 916.896 61.6761 916.606 61.4318C916.322 61.1875 915.879 61 915.277 60.8693L913.044 60.4006C911.788 60.1392 910.859 59.6989 910.257 59.0795C909.655 58.4545 909.356 57.6648 909.362 56.7102C909.356 55.9034 909.575 55.2045 910.018 54.6136C910.467 54.017 911.089 53.5568 911.885 53.233C912.686 52.9034 913.609 52.7386 914.655 52.7386C916.189 52.7386 917.396 53.0653 918.277 53.7188C919.163 54.3722 919.712 55.2557 919.922 56.3693ZM930.611 60.4943V52.9091H933.696V66H930.705V63.6733H930.568C930.273 64.4062 929.787 65.0057 929.111 65.4716C928.44 65.9375 927.614 66.1705 926.631 66.1705C925.773 66.1705 925.014 65.9801 924.355 65.5994C923.702 65.2131 923.19 64.6534 922.821 63.9205C922.452 63.1818 922.267 62.2898 922.267 61.2443V52.9091H925.352V60.767C925.352 61.5966 925.58 62.2557 926.034 62.7443C926.489 63.233 927.085 63.4773 927.824 63.4773C928.278 63.4773 928.719 63.3665 929.145 63.1449C929.571 62.9233 929.921 62.5938 930.193 62.1562C930.472 61.7131 930.611 61.1591 930.611 60.4943ZM939.474 48.5455V66H936.389V48.5455H939.474ZM948.703 52.9091V55.2955H941.178V52.9091H948.703ZM943.036 49.7727H946.121V62.0625C946.121 62.4773 946.184 62.7955 946.309 63.017C946.439 63.233 946.61 63.3807 946.82 63.4602C947.03 63.5398 947.263 63.5795 947.519 63.5795C947.712 63.5795 947.888 63.5653 948.047 63.5369C948.212 63.5085 948.337 63.483 948.422 63.4602L948.942 65.8722C948.777 65.929 948.541 65.9915 948.235 66.0597C947.934 66.1278 947.564 66.1676 947.127 66.179C946.354 66.2017 945.658 66.0852 945.039 65.8295C944.419 65.5682 943.928 65.1648 943.564 64.6193C943.206 64.0739 943.03 63.392 943.036 62.5739V49.7727Z" fill="black"/>
</svg>
