<svg width="87" height="37" viewBox="0 0 87 37" fill="none" xmlns="http://www.w3.org/2000/svg">
<path d="M20.6645 36.3242C17.2647 36.3242 14.0042 34.8591 11.6002 32.2511L3.75456 23.7398C1.35055 21.1319 0 17.5947 0 13.9065C0 6.22609 5.73921 0 12.8189 0C16.2187 0 19.4792 1.4652 21.8832 4.07315L27.3101 9.96046C27.3101 9.96058 27.3102 9.96034 27.3101 9.96046L43.1222 27.1141C44.2703 28.3596 45.8275 29.0594 47.4512 29.0594C50.1696 29.0594 52.4743 27.1373 53.2733 24.4776L58.2636 29.8912C55.987 33.7593 51.9953 36.3242 47.4512 36.3242C44.0514 36.3242 40.7909 34.8591 38.3869 32.2511L17.148 9.21012C15.9998 7.96457 14.4426 7.26484 12.8189 7.26484C9.43767 7.26484 6.69668 10.2383 6.69668 13.9065C6.69668 15.668 7.34169 17.3573 8.48983 18.6028L16.3354 27.1141C17.4836 28.3596 19.0408 29.0594 20.6645 29.0594C23.383 29.0594 25.6876 27.1372 26.4866 24.4774L31.477 29.8911C29.2004 33.7592 25.2086 36.3242 20.6645 36.3242Z" fill="#3FF3FF"/>
<path d="M43.8774 9.21012C42.7293 7.96457 41.172 7.26484 39.5483 7.26484C36.8302 7.26484 34.5258 9.18639 33.7265 11.8457L28.7363 6.43217C31.013 2.56461 35.0046 0 39.5483 0C42.9481 0 46.2087 1.4652 48.6127 4.07315L69.8518 27.1141C71 28.3596 72.5572 29.0594 74.1809 29.0594C77.5622 29.0594 80.3032 26.0858 80.3032 22.4177C80.3032 20.6563 79.6582 18.9669 78.51 17.7214L70.6643 9.21012C69.5162 7.96457 67.959 7.26484 66.3352 7.26484C63.6169 7.26484 61.3124 9.18676 60.5132 11.8463L55.523 6.43266C57.7996 2.56473 61.7913 0 66.3352 0C69.7351 0 72.9956 1.4652 75.3996 4.07315L83.2453 12.5844C85.6493 15.1924 86.9999 18.7295 86.9999 22.4177C86.9999 30.0981 81.2607 36.3242 74.1809 36.3242C70.7811 36.3242 67.5206 34.8591 65.1165 32.2511L43.8774 9.21012Z" fill="black"/>
</svg>
